<svg width="36" height="36" viewBox="0 0 36 36" fill="none" xmlns="http://www.w3.org/2000/svg">
<path d="M6.91732 6.91634H10.084V10.083H6.91732V6.91634ZM0.583984 0.583008H16.4173V16.4163H0.583984V0.583008ZM3.75065 3.74967V13.2497H13.2507V3.74967H3.75065ZM6.91732 25.9163H10.084V29.083H6.91732V25.9163ZM0.583984 19.583H16.4173V35.4163H0.583984V19.583ZM3.75065 22.7497V32.2497H13.2507V22.7497H3.75065ZM19.584 19.583H25.9173V22.7497H29.084V19.583H35.4173V22.7497H29.084V25.9163H35.4173V35.4163H29.084V32.2497H22.7506V35.4163H19.584V32.2497H22.7506V29.083H19.584V19.583ZM32.2506 32.2497V29.083H29.084V32.2497H32.2506ZM29.084 25.9163H25.9173V22.7497H22.7506V29.083H29.084V25.9163ZM34.9423 4.30384L33.359 5.88717L30.1131 2.72051L31.6965 1.13717C32.0131 0.804675 32.5515 0.788841 32.9156 1.13717L34.9423 3.08467C35.2748 3.40134 35.2907 3.93967 34.9423 4.30384ZM19.584 13.1547L29.1948 3.55967L32.4407 6.80551L22.8457 16.4163H19.584V13.1547Z" fill="black"/>
</svg>
