<svg width="37" height="38" viewBox="0 0 37 38" fill="none" xmlns="http://www.w3.org/2000/svg">
<path d="M6.33333 8.91634H9.5V12.083H6.33333V8.91634ZM0 2.58301H15.8333V18.4163H0V2.58301ZM3.16667 5.74967V15.2497H12.6667V5.74967H3.16667ZM6.33333 27.9163H9.5V31.083H6.33333V27.9163ZM0 21.583H15.8333V37.4163H0V21.583ZM3.16667 24.7497V34.2497H12.6667V24.7497H3.16667ZM19 21.583H25.3333V24.7497H28.5V21.583H34.8333V24.7497H28.5V27.9163H34.8333V37.4163H28.5V34.2497H22.1667V37.4163H19V34.2497H22.1667V31.083H19V21.583ZM31.6667 34.2497V31.083H28.5V34.2497H31.6667ZM28.5 27.9163H25.3333V24.7497H22.1667V31.083H28.5V27.9163ZM34.3583 6.30384L32.775 7.88717L29.5292 4.72051L31.1125 3.13717C31.4292 2.80467 31.9675 2.78884 32.3317 3.13717L34.3583 5.08467C34.6908 5.40134 34.7067 5.93967 34.3583 6.30384ZM19 15.1547L28.6108 5.55967L31.8567 8.80551L22.2617 18.4163H19V15.1547Z" fill="black"/>
<rect x="17" y="3" width="18" height="17" fill="#EDEDED"/>
<path d="M26.9993 15.0036H22.5468C20.4035 15.0002 18.666 13.3277 18.666 11.2644C18.666 9.20106 20.4035 7.5294 22.5468 7.5294C22.8743 6.06106 24.0418 4.86273 25.6093 4.38523C27.176 3.90856 28.906 4.2244 30.146 5.21856C31.386 6.21023 31.9477 7.7244 31.621 9.19273H32.446C33.596 9.19273 34.5877 9.86856 35.0527 10.8477M32.8327 18.3336V13.3336M32.8327 13.3336L35.3327 15.8336M32.8327 13.3336L30.3327 15.8336" stroke="black" stroke-width="2" stroke-linecap="round" stroke-linejoin="round"/>
</svg>
