<svg width="43" height="43" viewBox="0 0 43 43" fill="none" xmlns="http://www.w3.org/2000/svg">
<path d="M7.71218 8.29519H11.5683V12.1513H7.71218V8.29519ZM0 0.583008H19.2805V19.8635H0V0.583008ZM3.85609 4.4391V16.0074H15.4244V4.4391H3.85609ZM7.71218 31.4317H11.5683V35.2878H7.71218V31.4317ZM0 23.7195H19.2805V43H0V23.7195ZM3.85609 27.5756V39.1439H15.4244V27.5756H3.85609ZM23.1365 23.7195H30.8487V27.5756H34.7048V23.7195H42.417V27.5756H34.7048V31.4317H42.417V43H34.7048V39.1439H26.9926V43H23.1365V39.1439H26.9926V35.2878H23.1365V23.7195ZM38.5609 39.1439V35.2878H34.7048V39.1439H38.5609ZM34.7048 31.4317H30.8487V27.5756H26.9926V35.2878H34.7048V31.4317ZM41.8386 5.11391L39.9105 7.04196L35.958 3.18587L37.8861 1.25782C38.2717 0.852934 38.9272 0.833654 39.3707 1.25782L41.8386 3.62932C42.2435 4.01493 42.2628 4.67046 41.8386 5.11391ZM23.1365 15.8917L34.8398 4.20773L38.7923 8.16022L27.1083 19.8635H23.1365V15.8917Z" fill="black"/>
<rect x="20.7012" y="1.09082" width="21.9188" height="20.7011" fill="#EDEDED"/>
<path fill-rule="evenodd" clip-rule="evenodd" d="M41.6146 11.4418C41.6146 11.0593 41.4079 10.8089 40.9945 10.306C39.4815 8.46908 36.1444 5.04883 32.2702 5.04883C28.3961 5.04883 25.0589 8.46908 23.5459 10.306C23.1325 10.8089 22.9258 11.0593 22.9258 11.4418C22.9258 11.8243 23.1325 12.0747 23.5459 12.5776C25.0589 14.4146 28.3961 17.8348 32.2702 17.8348C36.1444 17.8348 39.4815 14.4146 40.9945 12.5776C41.4079 12.0747 41.6146 11.8243 41.6146 11.4418ZM32.2702 14.6383C33.118 14.6383 33.931 14.3015 34.5305 13.7021C35.1299 13.1026 35.4667 12.2896 35.4667 11.4418C35.4667 10.5941 35.1299 9.78102 34.5305 9.18156C33.931 8.5821 33.118 8.24532 32.2702 8.24532C31.4224 8.24532 30.6094 8.5821 30.0099 9.18156C29.4105 9.78102 29.0737 10.5941 29.0737 11.4418C29.0737 12.2896 29.4105 13.1026 30.0099 13.7021C30.6094 14.3015 31.4224 14.6383 32.2702 14.6383Z" fill="black"/>
</svg>
